<svg xmlns="http://www.w3.org/2000/svg" xml:space="preserve" width="1500" height="1500" stroke="#000" data-id="lg_1v6pzswLMllqBt61Z5" data-version="1"><path stroke="transparent" d="M0 0h1500v1500H0z"/><g data-padding="20"><path fill="#b0b0b0" stroke-width="1.842" d="M583.52 451.555v5.269q0 5.066-1.732 10.87-1.75 5.803-5.693 10.759-3.96 4.956-10.28 8.272-6.337 3.334-15.512 3.334h-104.09q-2.948 0-5.49-1.068-2.525-1.05-4.367-2.893t-2.91-4.384q-1.051-2.524-1.051-5.472v-123.6q0-2.856 1.05-5.38 1.069-2.543 2.91-4.44t4.367-2.948q2.543-1.05 5.49-1.05h91.747q5.067 0 10.87 1.787t10.814 5.748 8.328 10.28q3.316 6.338 3.316 15.512v5.159q0 7.277-2.414 15.66-2.432 8.382-7.811 15.88 4.643 2.837 8.696 6.854 4.071 3.997 7.13 9.285 3.058 5.269 4.845 11.901 1.787 6.65 1.787 14.665m-27.414 5.066v-5.066q0-5.38-1.695-9.654-1.676-4.255-4.735-7.314t-7.387-4.698-9.71-1.64h-61.79v-27.634h49.466q5.38 0 9.69-1.64 4.33-1.62 7.388-4.679t4.698-7.332q1.621-4.275 1.621-9.654v-5.159q0-5.913-5.693-5.913h-78.15v96.39h90.494q.737 0 1.787-.093 1.068-.11 1.897-.645.848-.515 1.493-1.787.626-1.27.626-3.482M749.42 338.824v50.608q0 9.396-2.377 16.784-2.376 7.369-6.264 13.025-3.905 5.637-9.138 9.635-5.213 4.016-10.796 6.596-5.6 2.579-11.348 3.74t-10.796 1.16h-11.09v49.687h-27.617v-49.687h-10.98q-5.048 0-10.796-1.16t-11.404-3.74q-5.638-2.58-10.796-6.596-5.177-3.998-9.138-9.635-3.942-5.656-6.319-13.08-2.377-7.443-2.377-16.729v-50.608h27.414v50.608q0 5.38 1.695 9.654t4.753 7.332 7.425 4.698q4.384 1.64 9.764 1.64H698.7q3.887-.645 8.014-1.64 4.108-1.013 7.48-3.426 3.371-2.432 5.582-6.762 2.23-4.31 2.23-11.496v-50.608Zm161.368 0v27.414H850.34v123.821h-27.413V366.238H762.39v-27.414Zm144.474 61.791v27.635h-86.589v-27.635Zm12.343 62.012v27.432h-98.932q-5.693 0-12.436-2.008t-12.49-6.595-9.599-11.92-3.85-17.981v-98.914q0-2.855 1.05-5.38 1.05-2.542 2.892-4.44 1.86-1.897 4.385-2.947t5.49-1.05h123.49v27.414H957.711v85.317q0 5.38 2.856 8.235 2.837 2.837 8.327 2.837Z" font-family="Audiowide" font-size="117.239"/><path stroke-width="1.842" d="M542.086 830.481q-10.317 0-15.973-6.337-5.656-6.356-5.656-17.981 0-11.92 5.748-18.405 5.748-6.503 16.36-6.503 3.427 0 6.853.737t5.362 1.731l-2.211 6.117q-2.377-.958-5.195-1.584t-4.975-.627q-14.48 0-14.48 18.46 0 8.751 3.537 13.43 3.519 4.68 10.464 4.68 5.933 0 12.178-2.56v6.374q-4.772 2.468-12.012 2.468m30.472-68.294v67.428h-7.204v-67.428Zm22.458 19.934v47.494h-7.204v-47.494Zm-7.812-12.878q0-2.469 1.216-3.611 1.216-1.16 3.04-1.16 1.732 0 2.985 1.178 1.252 1.161 1.252 3.593t-1.252 3.61q-1.253 1.198-2.985 1.198-1.824 0-3.04-1.197-1.216-1.18-1.216-3.611m42.042 61.238q-10.317 0-15.973-6.337-5.656-6.356-5.656-17.981 0-11.92 5.748-18.405 5.748-6.503 16.36-6.503 3.426 0 6.853.737t5.361 1.731l-2.21 6.117q-2.377-.958-5.196-1.584t-4.974-.627q-14.48 0-14.48 18.46 0 8.751 3.537 13.43 3.518 4.68 10.464 4.68 5.932 0 12.178-2.56v6.374q-4.772 2.468-12.012 2.468m30.03-25.184h.35q1.86-2.635 5.674-6.927l15.346-16.25h8.549l-19.253 20.23 20.597 27.265h-8.714l-16.783-22.439-5.417 4.68v17.76h-7.11v-67.43h7.11v35.742q0 2.395-.35 7.369m78.243 19.252q1.898 0 3.685-.276 1.769-.295 2.819-.59v5.509q-1.18.552-3.445.92-2.285.37-4.109.37-13.78 0-13.78-14.518v-28.261h-6.798v-3.464l6.798-2.984 3.04-10.151h4.163v11.017h13.78v5.582h-13.78v27.966q0 4.293 2.027 6.577 2.045 2.303 5.6 2.303m56.983-18.718q0 11.607-5.84 18.129-5.859 6.521-16.176 6.521-6.374 0-11.311-2.984t-7.628-8.585q-2.69-5.583-2.69-13.08 0-11.626 5.822-18.11 5.804-6.467 16.12-6.467 9.967 0 15.844 6.632 5.859 6.632 5.859 17.944m-36.183 0q0 9.101 3.648 13.854 3.63 4.772 10.704 4.772 7.056 0 10.722-4.735 3.666-4.753 3.666-13.89 0-9.065-3.666-13.763-3.666-4.716-10.814-4.716-7.057 0-10.667 4.642-3.593 4.643-3.593 13.836m91.931 24.65q-10.538 0-16.617-6.41-6.098-6.412-6.098-17.816 0-11.478 5.656-18.239t15.199-6.761q8.916 0 14.13 5.858 5.195 5.877 5.195 15.513v4.55h-32.719q.203 8.364 4.219 12.694t11.293 4.329q7.664 0 15.162-3.206v6.412q-3.813 1.658-7.203 2.358-3.408.718-8.217.718m-1.953-43.202q-5.73 0-9.119 3.722-3.408 3.721-4.016 10.317h24.834q0-6.799-3.04-10.428-3.021-3.61-8.659-3.61m64.96 42.335-.94-6.374h-.405q-4.974 7.24-14.904 7.24-9.322 0-14.499-6.374-5.177-6.356-5.177-18.11t5.196-18.239q5.213-6.503 14.48-6.503 9.672 0 14.83 7.019h.553l-.294-3.427-.185-3.334v-19.326h7.204v67.428Zm-15.328-5.158q7.37 0 10.686-3.998 3.297-4.016 3.297-12.951v-1.511q0-10.096-3.353-14.407t-10.722-4.31q-6.337 0-9.69 4.918t-3.353 13.891q0 9.101 3.334 13.725 3.335 4.643 9.801 4.643m43.645-42.336v47.494h-7.204v-47.494Zm-7.812-12.878q0-2.469 1.216-3.611 1.216-1.16 3.04-1.16 1.732 0 2.984 1.178 1.253 1.161 1.253 3.593t-1.253 3.61q-1.252 1.198-2.984 1.198-1.824 0-3.04-1.197-1.216-1.18-1.216-3.611m38.412 55.306q1.898 0 3.685-.276 1.769-.295 2.8-.59v5.509q-1.16.552-3.445.92-2.266.37-4.09.37-13.78 0-13.78-14.518v-28.261h-6.798v-3.464l6.798-2.984 3.04-10.151h4.145v11.017h13.799v5.582h-13.8v27.966q0 4.293 2.046 6.577 2.045 2.303 5.6 2.303" font-family="Open Sans" font-size="48.18"/><path fill="#b0b0b0" stroke-width="1.842" d="M402.973 649.99v29.532h-92.502V649.99Zm13.191 66.268v29.293H310.471q-6.098 0-13.302-2.137-7.221-2.137-13.356-7.038t-10.262-12.749q-4.108-7.83-4.108-19.197V598.72q0-3.04 1.123-5.748t3.114-4.735q1.971-2.027 4.661-3.15 2.708-1.124 5.859-1.124h131.964v29.293H298.735v91.175q0 5.73 3.059 8.788 3.04 3.04 8.898 3.04Zm189.537-64.683v26.363q0 14.757-5.122 27.156t-14.148 21.352q-9.01 8.972-21.408 14.038t-26.935 5.067H458.98q-3.15 0-5.858-1.124t-4.68-3.095-3.095-4.68-1.123-5.858V598.719q0-3.04 1.123-5.748t3.095-4.735 4.68-3.15 5.858-1.124h79.11q14.535 0 26.934 5.066t21.408 14.039q9.027 8.953 14.148 21.407t5.122 27.1m-29.293 26.364v-26.363q0-8.567-2.763-15.66-2.764-7.111-7.83-12.122t-12.122-7.775q-7.038-2.763-15.605-2.763h-64.573v103.003h64.573q8.567 0 15.605-2.763 7.056-2.764 12.122-7.775t7.83-12.067q2.763-7.038 2.763-15.715m87.565-93.976V745.55h-29.31V583.96Zm180.289 0v29.293H779.69V745.55h-29.293V613.255h-64.683v-29.293Zm188.873 65.347v30.877q0 14.775-5.084 27.174-5.067 12.38-14.076 21.407-9.009 9.01-21.352 14.02t-26.88 5.011H926.08q-14.536 0-26.935-5.01t-21.407-14.02q-9.01-9.028-14.15-21.408-5.121-12.399-5.121-27.174v-30.877q0-14.647 5.122-27.1 5.14-12.436 14.149-21.408 9.008-8.954 21.407-14.02 12.399-5.085 26.935-5.085h39.665q14.536 0 26.879 5.085 12.343 5.066 21.352 14.02 9.01 8.972 14.076 21.407 5.084 12.454 5.084 27.1m-29.31 30.878v-30.877q0-8.678-2.746-15.715-2.763-7.038-7.793-12.05-5.01-5.01-12.048-7.774t-15.494-2.763H926.08q-8.567 0-15.605 2.763-7.056 2.764-12.122 7.775t-7.83 12.049-2.763 15.715v30.877q0 8.677 2.763 15.733 2.764 7.038 7.83 12.049t12.122 7.774q7.038 2.764 15.605 2.764h39.444q8.566 0 15.604-2.764t12.104-7.774q5.085-5.011 7.848-12.049 2.745-7.056 2.745-15.733m219.751-60.612v18.7q0 10.021-2.487 17.925-2.469 7.885-6.706 13.91-4.219 6.024-9.746 10.316-5.508 4.274-11.551 7.038-6.025 2.763-12.16 3.998-6.153 1.234-11.55 1.234l61.182 52.856h-45.302l-61.073-52.856h-21.076v-29.293h66.268q5.509-.442 10.078-2.303t7.885-5.03q3.334-3.15 5.14-7.59 1.805-4.458 1.805-10.206v-18.478q0-2.487-.626-3.777t-1.585-1.916-2.026-.737-1.971-.11h-96.685V745.55h-29.292V598.719q0-3.04 1.123-5.748t3.095-4.735 4.68-3.15 5.858-1.124h111.22q9.802 0 16.563 3.537 6.761 3.556 10.999 8.917 4.219 5.343 6.08 11.551 1.86 6.19 1.86 11.607" font-family="Audiowide" font-size="125.269"/><path fill="#b0b0b0" stroke-width="1.842" d="m660.068 1103.77-82.241-82.241v-.295l82.24-82.26 18.35 17.448-65.678 65.107 65.089 65.678Zm28.113 57.406 95.874-275.462h28.98l-96.15 275.462Zm134.913-73.969 65.107-65.678-65.697-65.107 18.35-17.447 82.259 82.26v.294l-82.26 82.24Z" font-family="Advent Pro" font-size="160.601"/><path fill="transparent" stroke="transparent" stroke-width="1.916" d="M250 322.797h1000v854.406H250z"/></g></svg>