<svg xmlns="http://www.w3.org/2000/svg" xml:space="preserve" width="1500" height="446" data-id="lg_1v6pzswLMllqBt61Z5" data-version="1"><g data-padding="20"><path fill="#ffa62e" d="M663.097 67.212v2.75q0 2.645-.904 5.674-.913 3.03-2.971 5.616-2.068 2.587-5.367 4.318-3.308 1.74-8.097 1.74h-54.335q-1.539 0-2.866-.557-1.318-.548-2.28-1.51t-1.519-2.288q-.548-1.318-.548-2.857v-64.52q0-1.49.548-2.807.558-1.327 1.52-2.318t2.279-1.539q1.327-.548 2.866-.548h47.892q2.644 0 5.674.933t5.645 3 4.347 5.367q1.73 3.308 1.73 8.097v2.693q0 3.798-1.26 8.174-1.269 4.376-4.077 8.29 2.424 1.48 4.54 3.577 2.125 2.087 3.721 4.847 1.597 2.75 2.53 6.213.932 3.471.932 7.655m-14.31 2.644v-2.644q0-2.808-.884-5.04-.876-2.221-2.472-3.817t-3.856-2.453-5.068-.856h-32.255V40.621h25.821q2.808 0 5.058-.856 2.26-.846 3.857-2.442t2.452-3.828q.846-2.231.846-5.04v-2.692q0-3.087-2.971-3.087H598.52v50.315h47.238q.385 0 .933-.048.558-.057.99-.336.443-.27.78-.933.326-.664.326-1.818m100.91-61.49v26.418q0 4.904-1.24 8.76-1.241 3.847-3.27 6.8-2.039 2.942-4.77 5.03-2.722 2.096-5.636 3.442-2.923 1.347-5.924 1.952t-5.635.606h-5.79v25.937h-14.415V61.374h-5.732q-2.635 0-5.635-.606t-5.953-1.952q-2.943-1.346-5.636-3.443-2.702-2.087-4.77-5.03-2.058-2.952-3.298-6.827-1.24-3.885-1.24-8.732V8.366h14.31v26.418q0 2.808.884 5.039t2.481 3.827 3.876 2.453q2.288.856 5.097.856h25.82q2.03-.337 4.184-.856 2.145-.53 3.905-1.789 1.76-1.27 2.914-3.53 1.163-2.25 1.163-6V8.366Zm84.234 0v14.31h-31.553v64.635h-14.31V22.676h-31.6V8.366Zm75.416 32.255v14.425h-45.2V40.621Zm6.443 32.37v14.32h-51.643q-2.971 0-6.491-1.048t-6.52-3.443-5.01-6.222-2.01-9.386V15.579q0-1.49.548-2.808.548-1.327 1.51-2.318.97-.99 2.288-1.539t2.866-.548h64.462v14.31h-57.365v44.536q0 2.808 1.49 4.298 1.482 1.481 4.348 1.481Z" font-family="Audiowide" font-size="117.239"/><path d="M641.469 265.011q-5.385 0-8.338-3.308-2.952-3.318-2.952-9.386 0-6.222 3-9.607 3-3.395 8.54-3.395 1.789 0 3.577.385t2.799.904l-1.154 3.192q-1.24-.5-2.712-.827t-2.597-.327q-7.558 0-7.558 9.637 0 4.568 1.846 7.01 1.837 2.443 5.462 2.443 3.097 0 6.357-1.337v3.328q-2.49 1.288-6.27 1.288m15.906-35.65v35.198h-3.76v-35.197Zm11.723 10.406v24.792h-3.76v-24.792Zm-4.077-6.722q0-1.289.634-1.885.635-.606 1.587-.606.904 0 1.558.616.654.605.654 1.875t-.654 1.885q-.654.625-1.558.625-.952 0-1.587-.625-.634-.616-.634-1.885m21.945 31.966q-5.385 0-8.338-3.308-2.952-3.318-2.952-9.386 0-6.222 3-9.607 3.001-3.395 8.54-3.395 1.79 0 3.578.385t2.798.904l-1.154 3.192q-1.24-.5-2.712-.827t-2.596-.327q-7.56 0-7.56 9.637 0 4.568 1.847 7.01 1.837 2.443 5.463 2.443 3.096 0 6.356-1.337v3.328q-2.49 1.288-6.27 1.288m15.676-13.146h.183q.97-1.375 2.961-3.616l8.011-8.482h4.463l-10.05 10.56 10.752 14.232h-4.55l-8.76-11.713-2.827 2.443v9.27h-3.713v-35.197h3.713v18.656q0 1.25-.183 3.847m40.843 10.05q.99 0 1.923-.145.923-.154 1.471-.307v2.875q-.615.289-1.798.48-1.193.193-2.145.193-7.193 0-7.193-7.578v-14.752h-3.549v-1.808l3.549-1.558 1.587-5.299h2.173v5.751h7.194v2.914h-7.194v14.598q0 2.241 1.058 3.434 1.068 1.202 2.924 1.202m29.745-9.771q0 6.059-3.049 9.463-3.058 3.404-8.444 3.404-3.327 0-5.904-1.558t-3.982-4.481q-1.404-2.914-1.404-6.828 0-6.068 3.04-9.453 3.028-3.376 8.414-3.376 5.203 0 8.27 3.462 3.059 3.462 3.059 9.367m-18.888 0q0 4.75 1.904 7.232 1.895 2.49 5.588 2.49 3.683 0 5.597-2.471 1.913-2.481 1.913-7.251 0-4.732-1.913-7.184-1.914-2.462-5.646-2.462-3.683 0-5.568 2.424-1.875 2.423-1.875 7.222m47.988 12.867q-5.5 0-8.674-3.346-3.183-3.347-3.183-9.3 0-5.991 2.952-9.52t7.934-3.53q4.654 0 7.376 3.058 2.712 3.068 2.712 8.098v2.375h-17.08q.106 4.366 2.203 6.626t5.895 2.26q4 0 7.914-1.673v3.346q-1.99.866-3.76 1.231-1.779.375-4.289.375m-1.02-22.551q-2.99 0-4.76 1.942-1.779 1.943-2.096 5.386h12.963q0-3.549-1.586-5.443-1.577-1.885-4.52-1.885m33.909 22.1-.49-3.328h-.212q-2.597 3.78-7.78 3.78-4.866 0-7.569-3.328-2.702-3.318-2.702-9.454t2.712-9.52q2.721-3.395 7.559-3.395 5.049 0 7.741 3.664h.289l-.154-1.789-.096-1.74v-10.088h3.76v35.197Zm-8.001-2.693q3.846 0 5.577-2.087 1.722-2.097 1.722-6.761v-.789q0-5.27-1.75-7.52t-5.598-2.25q-3.308 0-5.058 2.567t-1.75 7.252q0 4.75 1.74 7.164 1.741 2.424 5.117 2.424m22.782-22.1v24.792h-3.76v-24.792Zm-4.078-6.722q0-1.289.635-1.885.635-.606 1.587-.606.904 0 1.558.616.654.605.654 1.875t-.654 1.885q-.654.625-1.558.625-.952 0-1.587-.625-.635-.616-.635-1.885m20.052 28.87q.99 0 1.923-.145.923-.154 1.462-.307v2.875q-.606.289-1.799.48-1.183.193-2.135.193-7.193 0-7.193-7.578v-14.752h-3.549v-1.808l3.549-1.558 1.587-5.299h2.164v5.751h7.203v2.914h-7.203v14.598q0 2.241 1.067 3.434 1.067 1.202 2.924 1.202" font-family="Open Sans" font-size="48.18"/><path fill="#ffa62e" d="M568.852 170.795v15.416h-48.286v-15.416Zm6.886 34.592v15.29h-55.172q-3.183 0-6.944-1.115-3.77-1.116-6.972-3.674t-5.356-6.655q-2.145-4.087-2.145-10.02V144.03q0-1.587.587-3t1.625-2.472q1.029-1.058 2.433-1.644 1.414-.587 3.058-.587h68.886v15.29H514.44v47.595q0 2.99 1.596 4.587 1.587 1.587 4.645 1.587Zm98.938-33.765v13.762q0 7.703-2.674 14.175t-7.385 11.146q-4.703 4.683-11.175 7.328t-14.06 2.645h-41.295q-1.644 0-3.058-.587t-2.443-1.616-1.615-2.442-.587-3.059v-68.943q0-1.587.587-3t1.615-2.472 2.443-1.644 3.058-.587h41.295q7.588 0 14.06 2.645t11.175 7.328q4.712 4.674 7.385 11.175t2.674 14.146m-15.29 13.762v-13.762q0-4.472-1.443-8.174-1.443-3.713-4.088-6.328t-6.327-4.059q-3.674-1.442-8.146-1.442h-33.707v53.768h33.707q4.472 0 8.146-1.443 3.683-1.442 6.327-4.058t4.088-6.3q1.442-3.673 1.442-8.202m45.71-49.056v84.35h-15.301v-84.35Zm94.11 0v15.29h-33.707v69.06h-15.291v-69.06h-33.765v-15.29Zm98.592 34.111v16.118q0 7.713-2.655 14.185-2.644 6.462-7.347 11.175-4.702 4.702-11.146 7.318t-14.03 2.616h-20.706q-7.588 0-14.06-2.616t-11.175-7.318q-4.702-4.713-7.385-11.175-2.674-6.472-2.674-14.185v-16.118q0-7.645 2.674-14.146 2.683-6.492 7.385-11.175 4.703-4.674 11.175-7.319 6.472-2.654 14.06-2.654h20.705q7.588 0 14.031 2.654 6.444 2.645 11.146 7.319 4.703 4.683 7.347 11.175 2.655 6.5 2.655 14.146m-15.3 16.118v-16.118q0-4.53-1.434-8.203-1.442-3.674-4.068-6.29-2.615-2.615-6.289-4.058t-8.088-1.442h-20.705q-4.472 0-8.145 1.442-3.684 1.443-6.328 4.058t-4.087 6.29-1.443 8.203v16.118q0 4.53 1.443 8.213 1.442 3.673 4.087 6.29t6.328 4.057q3.673 1.443 8.145 1.443h20.59q4.472 0 8.145-1.443t6.319-4.058q2.654-2.616 4.096-6.29 1.433-3.683 1.433-8.212m114.71-31.64v9.762q0 5.231-1.298 9.357-1.289 4.116-3.5 7.26-2.203 3.145-5.088 5.386-2.875 2.231-6.03 3.674-3.144 1.442-6.347 2.086-3.212.645-6.03.645l31.938 27.59h-23.648l-31.88-27.59h-11.001v-15.291h34.591q2.876-.23 5.26-1.202t4.117-2.626q1.74-1.644 2.683-3.962.942-2.327.942-5.327v-9.646q0-1.298-.327-1.972t-.827-1-1.058-.384-1.029-.058h-50.469v69.059h-15.29V144.03q0-1.587.586-3t1.616-2.472 2.442-1.644 3.058-.587h58.057q5.117 0 8.646 1.847 3.53 1.856 5.741 4.654 2.203 2.789 3.174 6.03.971 3.231.971 6.058" font-family="Audiowide" font-size="125.269"/><path fill="#ffa62e" d="m703.055 407.668-42.93-42.93v-.154l42.93-42.94 9.579 9.108-34.284 33.986 33.976 34.284Zm14.676 29.966 50.046-143.791h15.127l-50.19 143.79Zm70.424-38.612 33.986-34.284-34.294-33.986 9.579-9.107 42.939 42.94v.153l-42.94 42.93Z" font-family="Advent Pro" font-size="160.601"/><path fill="transparent" stroke="transparent" d="M489 0h522v446H489z"/></g></svg>